# xmcd
#
# Track frame offsets: 
#        150
#        19781
#        39611
#        57139
#        75441
#        90489
#        111801
#        129388
#        149054
#        168332
#        184215
#
# Disc length: 2701 seconds
#
# Revision: 0
# Processed by: cddbd v1.5.2PL0 Copyright (c) Steve Scherf et al.
# Submitted via: ExactAudioCopy v1.3
#
DISCID=8c0a8b0b
DTITLE=Wynonna Judd - A Classic Christmas
DYEAR=2006
DGENRE=Christmas
TTITLE0=The Christmas Song
TTITLE1=Winter Wonderland
TTITLE2=White Christmas
TTITLE3=I'll Be Home For Christmas
TTITLE4=Santa Claus Is Coming To Town
TTITLE5=Have Yourself A Merry Little Christmas
TTITLE6=Ave Maria
TTITLE7=O Come, O Come, Emmanuel
TTITLE8=Oh Holy Night
TTITLE9=Silent Night
TTITLE10=It's The Messiah
EXTD=
EXTT0=
EXTT1=
EXTT2=
EXTT3=
EXTT4=
EXTT5=
EXTT6=
EXTT7=
EXTT8=
EXTT9=
EXTT10=
PLAYORDER=
